<svg xmlns="http://www.w3.org/2000/svg" xml:space="preserve" width="370" height="400" style="background-color:#d3d3d3"><path fill="none" stroke="#51382B" stroke-miterlimit="10" d="M121.142 50.697c7.914-2.667 20.918 2.229 22.757 14.681"/><path fill="#51382B" d="m140.741 63.293 3.022 1.108 2.895-1.405-2.605 7.162z"/><path d="M140.027 46.726v.498l.229-.545 2.314-4.834h.598l.627 4.846.035.598.24-.604 2.098-4.84h.744l-2.895 6.34h-.598l-.697-5.027-.006-.352-.135.357-2.426 5.021h-.598l-.674-6.34.656-.006.488 4.888zM151.002 42.437a2.033 2.033 0 0 0-1.688.354 1.947 1.947 0 0 0-.744 1.034l-.75 4.359h-.691l1.102-6.34h.686l-.211 1.008c.23-.375.509-.66.835-.855s.685-.289 1.075-.281c.137 0 .297.027.48.082l-.094.639zM151.154 44.956c.07-.613.258-1.175.562-1.685s.685-.897 1.14-1.163.948-.393 1.479-.381c.523.008.97.151 1.339.431s.639.66.809 1.143.228 1.017.173 1.603l-.012.111c-.117 1-.472 1.803-1.063 2.408s-1.302.898-2.13.879c-.711-.012-1.279-.273-1.705-.785s-.635-1.188-.627-2.027l.018-.334.017-.2zm.68.199c-.051.465-.017.894.103 1.286s.31.7.571.923.588.34.979.352c.422.008.808-.1 1.157-.322s.638-.537.864-.943.373-.855.439-1.348l.018-.193c.07-.754-.046-1.37-.349-1.849s-.741-.724-1.315-.735c-.625-.02-1.165.222-1.62.724s-.733 1.169-.835 2.001l-.012.104zM160.02 40.222l-.281 1.623h1.271l-.1.574h-1.271l-.703 4.23-.012.363c0 .426.195.645.586.656.121.004.311-.01.568-.041l-.029.574c-.23.066-.465.096-.703.088-.41-.008-.709-.151-.896-.431s-.256-.685-.205-1.216l.697-4.225h-1.137l.105-.574h1.125l.287-1.623h.698zM163.875 48.302c-.508-.008-.947-.149-1.318-.425s-.644-.65-.817-1.125-.235-.987-.185-1.538l.018-.199c.055-.586.229-1.144.521-1.673s.664-.934 1.113-1.213.93-.413 1.441-.401c.473.008.872.137 1.198.387s.563.598.712 1.043.195.938.141 1.477l-.047.428h-4.389l-.018.141c-.059.426-.027.833.094 1.222s.319.697.595.926.606.347.993.354c.375.012.713-.061 1.014-.217s.578-.365.832-.627l.41.334c-.285.367-.624.646-1.017.835s-.822.279-1.291.271zm.738-5.977c-.508-.02-.963.16-1.365.539s-.705.912-.908 1.6l3.68.006.018-.088c.07-.555-.027-1.032-.293-1.433s-.643-.608-1.132-.624z"/><g opacity=".5"><path fill="none" stroke="#51382B" stroke-miterlimit="10" d="M267.142 50.697c7.914-2.667 20.918 2.229 22.757 14.681"/><path fill="#51382B" d="m286.741 63.293 3.022 1.108 2.895-1.405-2.605 7.162z"/></g><g opacity=".5"><path d="M286.027 46.726v.498l.229-.545 2.314-4.834h.598l.627 4.846.035.598.24-.604 2.098-4.84h.744l-2.895 6.34h-.598l-.697-5.027-.006-.352-.135.357-2.426 5.021h-.598l-.674-6.34.656-.006.488 4.888zM297.002 42.437a2.033 2.033 0 0 0-1.688.354 1.947 1.947 0 0 0-.744 1.034l-.75 4.359h-.691l1.102-6.34h.686l-.211 1.008c.23-.375.509-.66.835-.855s.685-.289 1.075-.281c.137 0 .297.027.48.082l-.094.639zM297.154 44.956c.07-.613.258-1.175.562-1.685s.685-.897 1.14-1.163.948-.393 1.479-.381c.523.008.97.151 1.339.431s.639.66.809 1.143.228 1.017.173 1.603l-.012.111c-.117 1-.472 1.803-1.063 2.408s-1.302.898-2.13.879c-.711-.012-1.279-.273-1.705-.785s-.635-1.188-.627-2.027l.018-.334.017-.2zm.68.199c-.051.465-.017.894.103 1.286s.31.7.571.923.588.34.979.352c.422.008.808-.1 1.157-.322s.638-.537.864-.943.373-.855.439-1.348l.018-.193c.07-.754-.046-1.37-.349-1.849s-.741-.724-1.315-.735c-.625-.02-1.165.222-1.62.724s-.733 1.169-.835 2.001l-.012.104zM306.02 40.222l-.281 1.623h1.271l-.1.574h-1.271l-.703 4.23-.012.363c0 .426.195.645.586.656.121.004.311-.01.568-.041l-.029.574c-.23.066-.465.096-.703.088-.41-.008-.709-.151-.896-.431s-.256-.685-.205-1.216l.697-4.225h-1.137l.105-.574h1.125l.287-1.623h.698zM309.875 48.302c-.508-.008-.947-.149-1.318-.425s-.644-.65-.817-1.125-.235-.987-.185-1.538l.018-.199c.055-.586.229-1.144.521-1.673s.664-.934 1.113-1.213.93-.413 1.441-.401c.473.008.872.137 1.198.387s.563.598.712 1.043.195.938.141 1.477l-.047.428h-4.389l-.018.141c-.059.426-.027.833.094 1.222s.319.697.595.926.606.347.993.354c.375.012.713-.061 1.014-.217s.578-.365.832-.627l.41.334c-.285.367-.624.646-1.017.835s-.822.279-1.291.271zm.738-5.977c-.508-.02-.963.16-1.365.539s-.705.912-.908 1.6l3.68.006.018-.088c.07-.555-.027-1.032-.293-1.433s-.643-.608-1.132-.624z"/></g><path fill="none" stroke="#51382B" stroke-miterlimit="10" d="M102.079 146.154c-6.356 5.416-8.846 19.086.888 27.067"/><path fill="#51382B" d="m99.504 174.363 2.695-1.76.604-3.162 4.184 6.371z"/><path d="M26.152 163.831c.461.016.868-.112 1.222-.384s.589-.638.706-1.099h.662c-.117.629-.425 1.136-.923 1.521s-1.065.569-1.702.554c-.512-.012-.941-.152-1.289-.422s-.599-.643-.753-1.119-.204-1.014-.149-1.611l.023-.252c.047-.41.147-.809.302-1.195s.36-.729.618-1.028.565-.535.923-.709.761-.255 1.21-.243c.648.016 1.164.234 1.547.656s.562.957.539 1.605l-.662-.006c.008-.488-.119-.883-.381-1.184s-.619-.459-1.072-.475c-.484-.016-.912.125-1.283.422s-.65.717-.838 1.26-.275 1.119-.264 1.729c.012.629.152 1.112.422 1.45s.65.514 1.142.53zM29.92 161.071c.07-.613.258-1.175.562-1.685s.685-.897 1.14-1.163.948-.393 1.479-.381c.523.008.97.151 1.339.431s.639.66.809 1.143.228 1.017.173 1.603l-.012.111c-.117 1-.472 1.803-1.063 2.408s-1.302.898-2.13.879c-.711-.012-1.279-.273-1.705-.785s-.635-1.188-.627-2.027l.018-.334.017-.2zm.68.2c-.051.465-.017.894.103 1.286s.31.7.571.923.588.34.979.352c.422.008.808-.1 1.157-.322s.638-.537.864-.943.373-.855.439-1.348l.018-.193c.07-.754-.046-1.37-.349-1.849s-.741-.724-1.315-.735c-.625-.02-1.165.222-1.62.724s-.733 1.169-.835 2.001l-.012.104zM38.1 157.96l-.211 1.084c.281-.391.606-.69.976-.899s.765-.31 1.187-.302c.609.016 1.053.229 1.33.639s.375.975.293 1.693l-.691 4.125h-.691l.691-4.133c.023-.222.027-.437.012-.644-.066-.695-.445-1.052-1.137-1.071a1.88 1.88 0 0 0-1.148.366c-.355.252-.668.631-.938 1.139l-.75 4.343h-.693l1.102-6.34h.668zM45.236 156.337l-.281 1.623h1.271l-.1.574h-1.271l-.703 4.23-.012.363c0 .426.195.645.586.656.121.004.311-.01.568-.041l-.029.574c-.23.066-.465.096-.703.088-.41-.008-.709-.151-.896-.431s-.256-.685-.205-1.216l.697-4.225h-1.137l.105-.574h1.125l.287-1.623h.698zM50.521 164.3a2.456 2.456 0 0 1-.018-.445l.053-.439c-.293.316-.628.564-1.005.744s-.784.266-1.222.258c-.535-.008-.97-.177-1.304-.507s-.483-.745-.448-1.245c.031-.418.175-.78.431-1.087s.62-.545 1.093-.715 1.002-.255 1.588-.255l1.295.006.105-.727c.047-.434-.047-.781-.281-1.043s-.58-.4-1.037-.416c-.461-.008-.862.106-1.204.343s-.556.548-.642.935h-.685c.078-.555.363-1.007.855-1.356s1.074-.521 1.746-.513c.652.016 1.155.213 1.509.592s.497.871.431 1.477l-.527 3.188-.047.51a2.4 2.4 0 0 0 .047.627l-.012.07h-.721zm-2.074-.492c.43.016.841-.087 1.233-.308s.718-.536.976-.943l.24-1.403-1.119-.006c-.711 0-1.291.126-1.74.379s-.697.613-.744 1.083c-.035.344.056.628.272.851.217.224.511.339.882.347zM53.65 164.3h-.703l1.107-6.34h.697l-1.101 6.34zm.598-8.174c.02-.254.188-.414.504-.48.152.027.261.075.325.144s.106.181.126.337c-.039.148-.096.257-.17.325s-.186.118-.334.149c-.316-.047-.467-.205-.451-.475zM57.307 157.96l-.211 1.084c.281-.391.606-.69.976-.899s.765-.31 1.187-.302c.609.016 1.053.229 1.33.639s.375.975.293 1.693l-.691 4.125H59.5l.691-4.133c.023-.222.027-.437.012-.644-.066-.695-.445-1.052-1.137-1.071a1.88 1.88 0 0 0-1.148.366c-.355.252-.668.631-.938 1.139l-.75 4.343h-.691l1.102-6.34h.666zM64.502 164.417c-.508-.008-.947-.149-1.318-.425s-.644-.65-.817-1.125-.235-.987-.185-1.538l.018-.199c.055-.586.229-1.144.521-1.673s.664-.934 1.113-1.213.93-.413 1.441-.401c.473.008.872.137 1.198.387s.563.598.712 1.043.195.938.141 1.477l-.047.428H62.89l-.018.141c-.059.426-.027.833.094 1.222s.319.697.595.926.606.347.993.354c.375.012.713-.061 1.014-.217s.578-.365.832-.627l.41.334c-.285.367-.624.646-1.017.835s-.822.279-1.291.271zm.738-5.977c-.508-.02-.963.16-1.365.539s-.705.912-.908 1.6l3.68.006.018-.088c.07-.555-.027-1.032-.293-1.433s-.643-.608-1.132-.624zM68.34 161.112c.09-.664.271-1.253.545-1.767s.608-.896 1.005-1.146.841-.369 1.333-.357c.375.008.717.095 1.025.261s.553.417.732.753l.645-3.557h.691l-1.564 9h-.65l.158-.844c-.551.664-1.234.984-2.051.961-.59-.016-1.052-.245-1.386-.688s-.509-1.04-.524-1.79a4.637 4.637 0 0 1 .029-.703l.012-.123zm.703.117c-.031.261-.043.54-.035.836.016.534.14.954.372 1.26.232.306.563.467.993.482.434.012.814-.087 1.143-.298.328-.211.605-.491.832-.842l.51-2.981c-.113-.378-.3-.675-.56-.892-.26-.216-.591-.33-.993-.342-.594-.02-1.089.208-1.485.681s-.651 1.131-.765 1.973l-.012.123zM78.254 164.3h-.703l1.107-6.34h.697l-1.101 6.34zm.598-8.174c.02-.254.188-.414.504-.48.152.027.261.075.325.144s.106.181.126.337c-.039.148-.096.257-.17.325s-.186.118-.334.149c-.317-.047-.467-.205-.451-.475zM81.91 157.96l-.211 1.084c.281-.391.606-.69.976-.899s.765-.31 1.187-.302c.609.016 1.053.229 1.33.639s.375.975.293 1.693l-.691 4.125h-.691l.691-4.133c.023-.222.027-.437.012-.644-.066-.695-.445-1.052-1.137-1.071a1.88 1.88 0 0 0-1.148.366c-.355.252-.668.631-.938 1.139l-.75 4.343h-.691l1.102-6.34h.666z"/><path fill="none" stroke="#51382B" stroke-miterlimit="10" d="M102.079 232.154c-6.356 5.416-8.846 19.086.888 27.067"/><path fill="#51382B" d="m99.504 260.362 2.695-1.759.604-3.163 4.184 6.372z"/><path d="M55.004 250.423c-.363-.008-.706-.085-1.028-.231s-.583-.376-.782-.688l-.586 3.234h-.691l1.523-8.777h.645l-.164.896c.551-.699 1.24-1.037 2.068-1.014.594.016 1.057.236 1.389.662s.504 1.029.516 1.811c.004.246-.008.484-.035.715l-.023.164c-.098.684-.281 1.273-.551 1.77s-.598.866-.984 1.11-.821.36-1.297.348zm2.156-3.39.035-.556c.012-.625-.102-1.114-.34-1.469s-.592-.541-1.061-.556a1.993 1.993 0 0 0-1.116.301c-.334.209-.616.512-.847.91l-.521 3.049c.125.359.323.632.595.82.271.187.597.287.976.298.566.02 1.046-.192 1.438-.635.393-.443.657-1.061.794-1.853l.047-.309zM62.797 250.3a2.456 2.456 0 0 1-.018-.445l.053-.439c-.293.316-.628.564-1.005.744s-.784.266-1.222.258c-.535-.008-.97-.177-1.304-.507s-.483-.745-.448-1.245c.031-.418.175-.78.431-1.087s.62-.545 1.093-.715 1.002-.255 1.588-.255l1.295.006.105-.727c.047-.434-.047-.781-.281-1.043s-.58-.4-1.037-.416c-.461-.008-.862.106-1.204.343s-.556.548-.642.935h-.686c.078-.555.363-1.007.855-1.356s1.074-.521 1.746-.513c.652.016 1.155.213 1.509.592s.497.871.431 1.477l-.527 3.188-.047.51a2.4 2.4 0 0 0 .047.627l-.012.07h-.72zm-2.074-.492c.43.016.841-.087 1.233-.308s.718-.536.976-.943l.24-1.403-1.119-.006c-.711 0-1.291.126-1.74.379s-.697.613-.744 1.083c-.035.344.056.628.272.851.217.224.511.339.882.347zM69.02 244.552a2.033 2.033 0 0 0-1.688.354 1.947 1.947 0 0 0-.744 1.034l-.75 4.359h-.691l1.102-6.34h.686l-.211 1.008c.23-.375.509-.66.835-.855s.685-.289 1.075-.281c.137 0 .297.027.48.082l-.094.639zM71.867 242.337l-.281 1.623h1.271l-.1.574h-1.271l-.703 4.23-.012.363c0 .426.195.645.586.656.121.004.311-.01.568-.041l-.029.574c-.23.066-.465.096-.703.088-.41-.008-.709-.151-.896-.431s-.256-.685-.205-1.216l.697-4.225h-1.137l.105-.574h1.125l.287-1.623h.698zM76.268 247.071c.07-.613.258-1.175.562-1.685s.685-.897 1.14-1.163.948-.393 1.479-.381c.523.008.97.151 1.339.431s.639.66.809 1.143.228 1.017.173 1.603l-.012.111c-.117 1-.472 1.803-1.063 2.408s-1.302.898-2.13.879c-.711-.012-1.279-.273-1.705-.785s-.635-1.188-.627-2.027l.018-.334.017-.2zm.679.2c-.051.465-.017.894.103 1.286s.31.7.571.923.588.34.979.352c.422.008.808-.1 1.157-.322s.638-.537.864-.943.373-.855.439-1.348l.018-.193c.07-.754-.046-1.37-.349-1.849s-.741-.724-1.315-.735c-.625-.02-1.165.222-1.62.724s-.733 1.169-.835 2.001l-.012.104zM83.164 250.3l1.002-5.766h-1.02l.105-.574h1.014l.123-.861c.098-.621.335-1.102.712-1.441s.847-.506 1.409-.498c.227.008.482.047.768.117l-.123.58a2.41 2.41 0 0 0-.627-.088c-.391 0-.714.127-.97.381s-.417.607-.483 1.061l-.111.75h1.471l-.105.574H84.87l-1.002 5.766h-.704z"/><g opacity=".5"><path fill="none" stroke="#51382B" stroke-miterlimit="10" d="M176.851 359.01c-7.642 3.368-21.034-.336-23.986-12.572"/><path fill="#51382B" d="m156.197 348.229-3.11-.832-2.757 1.662 1.95-7.369z"/></g><g opacity=".5"><path d="M120.962 368.423c-.363-.008-.706-.085-1.028-.231s-.583-.376-.782-.688l-.586 3.234h-.691l1.523-8.777h.645l-.164.896c.551-.699 1.24-1.037 2.068-1.014.594.016 1.057.236 1.389.662s.504 1.029.516 1.811c.004.246-.008.484-.035.715l-.023.164c-.098.684-.281 1.273-.551 1.77s-.598.866-.984 1.11-.821.36-1.297.348zm2.156-3.39.035-.556c.012-.624-.102-1.114-.34-1.47-.238-.354-.592-.54-1.061-.556-.41-.008-.782.093-1.116.302s-.616.512-.847.91l-.521 3.049c.125.359.323.633.595.82.271.187.597.286.976.298.566.02 1.046-.192 1.438-.635.393-.443.657-1.061.794-1.853l.047-.309zM128.755 368.3a2.456 2.456 0 0 1-.018-.445l.053-.439c-.293.316-.628.564-1.005.744s-.784.266-1.222.258c-.535-.008-.97-.177-1.304-.507s-.483-.745-.448-1.245c.031-.418.175-.78.431-1.087s.62-.545 1.093-.715 1.002-.255 1.588-.255l1.295.006.105-.727c.047-.434-.047-.781-.281-1.043s-.58-.4-1.037-.416c-.461-.008-.862.106-1.204.343s-.556.548-.642.935h-.686c.078-.555.363-1.007.855-1.356s1.074-.521 1.746-.513c.652.016 1.155.213 1.509.592s.497.871.431 1.477l-.527 3.188-.047.51a2.4 2.4 0 0 0 .047.627l-.012.07h-.72zm-2.074-.492c.43.016.841-.087 1.233-.308.393-.222.718-.536.976-.943l.24-1.403-1.119-.006c-.711 0-1.291.126-1.74.379s-.697.613-.744 1.083c-.035.345.056.629.272.852.217.223.511.338.882.346zM134.978 362.552a2.033 2.033 0 0 0-1.688.354 1.947 1.947 0 0 0-.744 1.034l-.75 4.359h-.691l1.102-6.34h.686l-.211 1.008c.23-.375.509-.66.835-.855s.685-.289 1.075-.281c.137 0 .297.027.48.082l-.094.639zM137.825 360.337l-.281 1.623h1.271l-.1.574h-1.271l-.703 4.23-.012.363c0 .426.195.645.586.656.121.004.311-.01.568-.041l-.029.574c-.23.066-.465.096-.703.088-.41-.008-.709-.151-.896-.431s-.256-.685-.205-1.216l.697-4.225h-1.137l.105-.574h1.125l.287-1.623h.698zM142.226 365.071c.07-.613.258-1.175.562-1.685s.685-.897 1.14-1.163.948-.393 1.479-.381c.523.008.97.151 1.339.431s.639.66.809 1.143.228 1.017.173 1.603l-.012.111c-.117 1-.472 1.803-1.063 2.408s-1.302.898-2.13.879c-.711-.012-1.279-.273-1.705-.785s-.635-1.188-.627-2.027l.018-.334.017-.2zm.679.2c-.051.465-.017.894.103 1.286s.31.7.571.923.588.34.979.352c.422.008.808-.1 1.157-.322s.638-.537.864-.943.373-.855.439-1.348l.018-.193c.07-.754-.046-1.37-.349-1.849s-.741-.724-1.315-.735c-.625-.02-1.165.222-1.62.724s-.733 1.169-.835 2.001l-.012.104zM149.122 368.3l1.002-5.766h-1.02l.105-.574h1.014l.123-.861c.098-.621.335-1.102.712-1.441s.847-.506 1.409-.498c.227.008.482.047.768.117l-.123.58a2.41 2.41 0 0 0-.627-.088c-.391 0-.714.127-.97.381s-.417.607-.483 1.061l-.111.75h1.471l-.105.574h-1.459l-1.002 5.766h-.704z"/></g><g opacity=".5"><path fill="none" stroke="#51382B" stroke-miterlimit="10" d="M218.564 125.576c-.16 8.349-9.156 18.939-21.499 16.469"/><path fill="#51382B" d="m200.094 139.775-2.064 2.471.347 3.2-5.863-4.87z"/></g><g opacity=".5"><path d="m206.137 149.933-.281 1.623h1.271l-.1.574h-1.271l-.703 4.23-.012.363c0 .426.195.645.586.656.121.004.311-.01.568-.041l-.029.574c-.23.066-.465.096-.703.088-.41-.008-.709-.151-.896-.431s-.256-.685-.205-1.216l.697-4.225h-1.137l.105-.574h1.125l.287-1.623h.698zM211.352 152.147a2.033 2.033 0 0 0-1.688.354 1.947 1.947 0 0 0-.744 1.034l-.75 4.359h-.691l1.102-6.34h.686l-.211 1.008c.23-.375.509-.66.835-.855s.685-.289 1.075-.281c.137 0 .297.027.48.082l-.094.639zM215.16 157.896a2.456 2.456 0 0 1-.018-.445l.053-.439c-.293.316-.628.564-1.005.744s-.784.266-1.222.258c-.535-.008-.97-.177-1.304-.507s-.483-.745-.448-1.245c.031-.418.175-.78.431-1.087s.62-.545 1.093-.715 1.002-.255 1.588-.255l1.295.006.105-.727c.047-.434-.047-.781-.281-1.043s-.58-.4-1.037-.416c-.461-.008-.862.106-1.204.343s-.556.548-.642.935h-.686c.078-.555.363-1.007.855-1.356s1.074-.521 1.746-.513c.652.016 1.155.213 1.509.592s.497.871.431 1.477l-.527 3.188-.047.51a2.4 2.4 0 0 0 .047.627l-.012.07h-.72zm-2.074-.493c.43.016.841-.087 1.233-.308s.718-.536.976-.943l.24-1.403-1.119-.006c-.711 0-1.291.126-1.74.379s-.697.613-.744 1.083c-.035.344.056.628.272.851.217.224.511.34.882.347zM219.279 151.556l-.211 1.084c.281-.391.606-.69.976-.899s.765-.31 1.187-.302c.609.016 1.053.229 1.33.639s.375.975.293 1.693l-.691 4.125h-.691l.691-4.133c.023-.222.027-.437.012-.644-.066-.695-.445-1.052-1.137-1.071a1.88 1.88 0 0 0-1.148.366c-.355.252-.668.631-.938 1.139l-.75 4.343h-.691l1.102-6.34h.666zM227.969 156.243c.062-.539-.266-.93-.984-1.172l-1.008-.299c-.926-.312-1.363-.834-1.312-1.564.027-.527.271-.956.729-1.286s1.005-.491 1.638-.483c.621.008 1.125.183 1.512.524s.566.798.539 1.368h-.691c.023-.379-.095-.688-.354-.926s-.604-.361-1.034-.369c-.445 0-.82.104-1.125.313s-.477.485-.516.829c-.059.504.25.857.926 1.061l.732.211.393.135c.883.332 1.299.873 1.248 1.623-.031.508-.251.925-.659 1.251s-.935.509-1.579.548l-.24.006c-.426-.008-.811-.091-1.154-.249s-.607-.38-.791-.665-.264-.613-.24-.984l.697.006c0 .398.135.713.404.943s.641.35 1.113.357c.469 0 .867-.106 1.195-.319s.514-.499.561-.859zM230.693 157.896h-.703l1.564-9h.703l-1.564 9zM236.523 157.896a2.456 2.456 0 0 1-.018-.445l.053-.439c-.293.316-.628.564-1.005.744s-.784.266-1.222.258c-.535-.008-.97-.177-1.304-.507s-.483-.745-.448-1.245c.031-.418.175-.78.431-1.087s.62-.545 1.093-.715 1.002-.255 1.588-.255l1.295.006.105-.727c.047-.434-.047-.781-.281-1.043s-.58-.4-1.037-.416c-.461-.008-.862.106-1.204.343s-.556.548-.642.935h-.686c.078-.555.363-1.007.855-1.356s1.074-.521 1.746-.513c.652.016 1.155.213 1.509.592s.497.871.431 1.477l-.527 3.188-.047.51a2.4 2.4 0 0 0 .047.627l-.012.07h-.72zm-2.074-.493c.43.016.841-.087 1.233-.308s.718-.536.976-.943l.24-1.403-1.119-.006c-.711 0-1.291.126-1.74.379s-.697.613-.744 1.083c-.035.344.056.628.272.851.217.224.511.34.882.347zM241.328 149.933l-.281 1.623h1.271l-.1.574h-1.271l-.703 4.23-.012.363c0 .426.195.645.586.656.121.004.311-.01.568-.041l-.029.574c-.23.066-.465.096-.703.088-.41-.008-.709-.151-.896-.431s-.256-.685-.205-1.216l.697-4.225h-1.137l.105-.574h1.125l.287-1.623h.698zM243.449 157.896h-.703l1.107-6.34h.697l-1.101 6.34zm.598-8.174c.02-.254.188-.414.504-.48.152.027.261.075.325.144s.106.181.126.337c-.039.148-.096.257-.17.325s-.186.118-.334.149c-.316-.048-.467-.206-.451-.475zM245.506 154.667c.07-.613.258-1.175.562-1.685s.685-.897 1.14-1.163.948-.393 1.479-.381c.523.008.97.151 1.339.431s.639.66.809 1.143.228 1.017.173 1.603l-.012.111c-.117 1-.472 1.803-1.063 2.408s-1.302.898-2.13.879c-.711-.012-1.279-.273-1.705-.785s-.635-1.188-.627-2.027l.018-.334.017-.2zm.68.199c-.051.465-.017.894.103 1.286s.31.7.571.923.588.34.979.352c.422.008.808-.1 1.157-.322s.638-.537.864-.943.373-.855.439-1.348l.018-.193c.07-.754-.046-1.37-.349-1.849s-.741-.724-1.315-.735c-.625-.02-1.165.222-1.62.724s-.733 1.169-.835 2.001l-.012.104zM253.686 151.556l-.211 1.084c.281-.391.606-.69.976-.899s.765-.31 1.187-.302c.609.016 1.053.229 1.33.639s.375.975.293 1.693l-.691 4.125h-.691l.691-4.133c.023-.222.027-.437.012-.644-.066-.695-.445-1.052-1.137-1.071a1.88 1.88 0 0 0-1.148.366c-.355.252-.668.631-.938 1.139l-.75 4.343h-.691l1.102-6.34h.666z"/></g><path fill="none" stroke="#51382B" stroke-miterlimit="10" d="M250.455 137.49c-16.041 7.882-37.576 9.464-52.865 4.918" opacity=".5"/><path fill="none" stroke="#51382B" stroke-miterlimit="10" d="M215.955 197.632c.665-8.323-7.241-19.75-19.768-18.511"/><path fill="#51382B" d="m197.829 175.865-.661 3.15 1.81 2.663-7.464-1.546z"/><path d="M228.752 193.923c-.363-.008-.706-.085-1.028-.231s-.583-.376-.782-.688l-.586 3.234h-.691l1.523-8.777h.645l-.164.896c.551-.699 1.24-1.037 2.068-1.014.594.016 1.057.236 1.389.662s.504 1.029.516 1.811c.004.246-.008.484-.035.715l-.023.164c-.098.684-.281 1.273-.551 1.77s-.598.866-.984 1.11-.82.36-1.297.348zm2.156-3.39.035-.556c.012-.625-.102-1.114-.34-1.469s-.592-.541-1.061-.556a1.993 1.993 0 0 0-1.116.301c-.334.209-.616.512-.847.91l-.521 3.049c.125.359.323.632.595.82.271.187.597.287.976.298.566.02 1.046-.192 1.438-.635.393-.443.657-1.061.794-1.853l.047-.309zM236.809 193.003c-.504.633-1.199.938-2.086.914-.598-.012-1.043-.228-1.336-.647s-.398-1.003-.316-1.749l.68-4.061h.691l-.674 4.078c-.023.211-.025.42-.006.627.027.359.135.637.322.832s.445.299.773.311c.469.02.902-.089 1.301-.325s.656-.546.773-.929l.785-4.594h.703l-1.102 6.34h-.68l.172-.797zM244.561 190.659c-.137 1.008-.458 1.809-.964 2.402s-1.132.881-1.878.861c-.414-.008-.778-.1-1.093-.275s-.556-.414-.724-.715l-.199.867h-.656l1.564-9h.691l-.662 3.58c.543-.715 1.229-1.061 2.057-1.037.605.016 1.072.24 1.4.674s.498 1.033.51 1.799c.004.25-.008.49-.035.721l-.011.123zm-.686-.134.041-.556c.012-.635-.1-1.126-.334-1.473-.234-.347-.584-.528-1.049-.544-.855-.016-1.525.417-2.01 1.298l-.48 2.865c.113.378.308.669.583.875.275.205.61.312 1.005.324.582.012 1.069-.213 1.462-.675s.653-1.167.782-2.114zM246.342 193.8h-.703l1.564-9h.703l-1.564 9zM249.008 193.8h-.703l1.107-6.34h.697l-1.101 6.34zm.597-8.174c.02-.254.188-.414.504-.48.152.027.261.075.325.144s.106.181.126.337c-.039.148-.096.257-.17.325s-.186.118-.334.149c-.316-.047-.466-.205-.451-.475zM254.902 192.147c.062-.539-.266-.93-.984-1.172l-1.008-.299c-.926-.312-1.363-.834-1.312-1.564.027-.527.271-.956.729-1.286s1.005-.491 1.638-.483c.621.008 1.125.183 1.512.524s.566.798.539 1.368h-.691c.023-.379-.095-.688-.354-.926s-.604-.361-1.034-.369c-.445 0-.82.104-1.125.313s-.477.485-.516.829c-.059.504.25.857.926 1.061l.732.211.393.135c.883.332 1.299.873 1.248 1.623-.031.508-.251.925-.659 1.251s-.935.509-1.579.548l-.24.006c-.426-.008-.811-.091-1.154-.249s-.607-.38-.791-.665-.264-.613-.24-.984l.697.006c0 .398.135.713.404.943s.641.35 1.113.357c.469 0 .867-.106 1.195-.319s.514-.499.561-.859zM258.412 188.532c.609-.809 1.328-1.205 2.156-1.189.609.016 1.053.229 1.33.639s.375.975.293 1.693l-.691 4.125h-.691l.691-4.133c.023-.222.027-.437.012-.644-.066-.695-.445-1.052-1.137-1.071a1.88 1.88 0 0 0-1.148.366c-.355.252-.668.631-.938 1.139l-.75 4.343h-.691l1.564-9h.691l-.691 3.732zM265.807 193.917c-.508-.008-.947-.149-1.318-.425s-.644-.65-.817-1.125-.235-.987-.185-1.538l.018-.199c.055-.586.229-1.144.521-1.673s.664-.934 1.113-1.213.93-.413 1.441-.401c.473.008.872.137 1.198.387s.563.598.712 1.043.195.938.141 1.477l-.047.428h-4.389l-.018.141c-.059.426-.027.833.094 1.222s.319.697.595.926.606.347.993.354c.375.012.713-.061 1.014-.217s.578-.365.832-.627l.41.334c-.285.367-.624.646-1.017.835s-.823.279-1.291.271zm.738-5.977c-.508-.02-.963.16-1.365.539s-.705.912-.908 1.6l3.68.006.018-.088c.07-.555-.027-1.032-.293-1.433s-.644-.608-1.132-.624zM269.645 190.612c.09-.664.271-1.253.545-1.767s.608-.896 1.005-1.146.841-.369 1.333-.357c.375.008.717.095 1.025.261s.553.417.732.753l.645-3.557h.691l-1.564 9h-.65l.158-.844c-.551.664-1.234.984-2.051.961-.59-.016-1.052-.245-1.386-.688s-.509-1.04-.524-1.79a4.637 4.637 0 0 1 .029-.703l.012-.123zm.703.117c-.031.261-.043.54-.035.836.016.534.14.954.372 1.26.232.306.563.467.993.482.434.012.814-.087 1.143-.298.328-.211.605-.491.832-.842l.51-2.981c-.113-.378-.3-.675-.56-.892-.26-.216-.591-.33-.993-.342-.594-.02-1.089.208-1.485.681s-.651 1.131-.765 1.973l-.012.123z"/><g opacity=".5"><path fill="none" stroke="#51382B" stroke-miterlimit="10" d="M268.009 275.913c6.981 4.581 11.156 17.834 2.494 26.967"/><path fill="#51382B" d="m270.193 299.108.995 3.062 2.893 1.41-7.244 2.371z"/></g><g opacity=".5"><path d="M288.752 293.594c-.363-.008-.706-.085-1.028-.231s-.583-.376-.782-.688l-.586 3.234h-.691l1.523-8.777h.645l-.164.896c.551-.699 1.24-1.037 2.068-1.014.594.016 1.057.236 1.389.662s.504 1.029.516 1.811c.004.246-.008.484-.035.715l-.023.164c-.098.684-.281 1.273-.551 1.77s-.598.866-.984 1.11-.82.359-1.297.348zm2.156-3.39.035-.556c.012-.625-.102-1.114-.34-1.469-.238-.355-.592-.541-1.061-.557a1.993 1.993 0 0 0-1.116.301c-.334.209-.616.513-.847.91l-.521 3.05c.125.359.323.632.595.819s.597.287.976.299c.566.02 1.046-.191 1.438-.635s.657-1.061.794-1.853l.047-.309zM296.809 292.674c-.504.633-1.199.938-2.086.914-.598-.012-1.043-.228-1.336-.647s-.398-1.003-.316-1.749l.68-4.061h.691l-.674 4.078c-.023.211-.025.42-.006.627.027.359.135.637.322.832s.445.299.773.311c.469.02.902-.089 1.301-.325s.656-.546.773-.929l.785-4.594h.703l-1.102 6.34h-.68l.172-.797zM304.561 290.33c-.137 1.008-.458 1.809-.964 2.402s-1.132.881-1.878.861c-.414-.008-.778-.1-1.093-.275s-.556-.414-.724-.715l-.199.867h-.656l1.564-9h.691l-.662 3.58c.543-.715 1.229-1.061 2.057-1.037.605.016 1.072.24 1.4.674s.498 1.033.51 1.799c.004.25-.008.49-.035.721l-.011.123zm-.686-.135.041-.555c.012-.636-.1-1.127-.334-1.474s-.584-.528-1.049-.544c-.855-.016-1.525.417-2.01 1.298l-.48 2.864c.113.379.308.67.583.875s.61.312 1.005.324c.582.012 1.069-.213 1.462-.676.392-.459.653-1.164.782-2.112zM306.342 293.471h-.703l1.564-9h.703l-1.564 9zM309.008 293.471h-.703l1.107-6.34h.697l-1.101 6.34zm.597-8.174c.02-.254.188-.414.504-.48.152.027.261.075.325.144s.106.181.126.337c-.039.148-.096.257-.17.325s-.186.118-.334.149c-.316-.047-.466-.206-.451-.475zM314.902 291.818c.062-.539-.266-.93-.984-1.172l-1.008-.299c-.926-.312-1.363-.834-1.312-1.564.027-.527.271-.956.729-1.286s1.005-.491 1.638-.483c.621.008 1.125.183 1.512.524s.566.798.539 1.368h-.691c.023-.379-.095-.688-.354-.926s-.604-.361-1.034-.369c-.445 0-.82.104-1.125.313s-.477.485-.516.829c-.059.504.25.857.926 1.061l.732.211.393.135c.883.332 1.299.873 1.248 1.623-.031.508-.251.925-.659 1.251s-.935.509-1.579.548l-.24.006c-.426-.008-.811-.091-1.154-.249s-.607-.38-.791-.665-.264-.613-.24-.984l.697.006c0 .398.135.713.404.943s.641.35 1.113.357c.469 0 .867-.106 1.195-.319s.514-.499.561-.859zM318.412 288.203c.609-.809 1.328-1.205 2.156-1.189.609.016 1.053.229 1.33.639s.375.975.293 1.693l-.691 4.125h-.691l.691-4.133c.023-.223.027-.437.012-.644-.066-.694-.445-1.052-1.137-1.071a1.885 1.885 0 0 0-1.148.365c-.355.252-.668.632-.938 1.139l-.75 4.344h-.691l1.564-9h.691l-.691 3.732zM325.807 293.588c-.508-.008-.947-.149-1.318-.425s-.644-.65-.817-1.125-.235-.987-.185-1.538l.018-.199c.055-.586.229-1.144.521-1.673s.664-.934 1.113-1.213.93-.413 1.441-.401c.473.008.872.137 1.198.387s.563.598.712 1.043.195.938.141 1.477l-.047.428h-4.389l-.018.141c-.059.426-.027.833.094 1.222s.319.697.595.926.606.347.993.354c.375.012.713-.061 1.014-.217s.578-.365.832-.627l.41.334c-.285.367-.624.646-1.017.835s-.823.279-1.291.271zm.738-5.977c-.508-.02-.963.16-1.365.539s-.705.912-.908 1.6l3.68.006.018-.088c.07-.555-.027-1.032-.293-1.433s-.644-.608-1.132-.624zM329.645 290.283c.09-.664.271-1.253.545-1.767s.608-.896 1.005-1.146.841-.369 1.333-.357c.375.008.717.095 1.025.261s.553.417.732.753l.645-3.557h.691l-1.564 9h-.65l.158-.844c-.551.664-1.234.984-2.051.961-.59-.016-1.052-.245-1.386-.688s-.509-1.04-.524-1.79a4.637 4.637 0 0 1 .029-.703l.012-.123zm.703.117a5.768 5.768 0 0 0-.035.836c.016.533.14.954.372 1.26.232.307.563.467.993.482.434.012.814-.088 1.143-.298.328-.211.605-.491.832-.843l.51-2.98c-.113-.379-.3-.676-.56-.893-.26-.216-.591-.33-.993-.342-.594-.02-1.089.207-1.485.682-.396.473-.651 1.131-.765 1.973l-.012.123z"/></g><path fill="#EB743B" stroke="#FFF" stroke-miterlimit="10" d="m173.188 76.012 24.402 42.82-24.402 42.658h-48.801l-24.401-42.698 24.401-42.511z"/><g fill="#FFF"><path d="m142.192 147.363 1.148-6.07h1.752l-1.893 8.531h-1.77l-1.389-5.707-1.389 5.707h-1.77l-1.893-8.531h1.752l1.154 6.059 1.406-6.059h1.488l1.404 6.07zM145.485 146.595c0-.629.121-1.189.363-1.682s.591-.873 1.046-1.143.983-.404 1.585-.404c.855 0 1.554.262 2.095.785s.843 1.234.905 2.133l.012.434c0 .973-.271 1.753-.814 2.341s-1.271.882-2.186.882-1.644-.293-2.188-.879-.817-1.383-.817-2.391v-.076zm1.694.12c0 .603.113 1.063.34 1.382.227.319.551.479.973.479.41 0 .73-.157.961-.473.23-.314.346-.818.346-1.511 0-.591-.115-1.048-.346-1.373s-.555-.487-.973-.487c-.414 0-.734.162-.961.484s-.34.823-.34 1.499zM156.097 145.072a4.644 4.644 0 0 0-.609-.047c-.641 0-1.061.217-1.26.65v4.148h-1.693v-6.34h1.6l.047.756c.34-.582.811-.873 1.412-.873.188 0 .363.025.527.076l-.024 1.63zM159.214 147.281l-.609.609v1.934h-1.693v-9h1.693v4.986l.328-.422 1.623-1.904h2.033l-2.291 2.643 2.49 3.697h-1.945l-1.629-2.543z"/></g><path fill="#51382B" d="M138.993 102.855a5.25 5.25 0 0 0-3.553 3.393l-7.652 22.957 1.204 1.205 12.314-12.313a3.905 3.905 0 0 1-.395-1.688 3.94 3.94 0 0 1 7.876 0 3.938 3.938 0 0 1-3.938 3.938 3.893 3.893 0 0 1-1.688-.394l-12.313 12.313 1.205 1.205 22.957-7.652a5.257 5.257 0 0 0 3.392-3.553l3.51-12.42-10.5-10.5-12.419 3.509zm29.641-5.3-4.931-4.93a3.937 3.937 0 0 0-5.57 0l-4.64 4.639 10.502 10.501 4.639-4.639a3.94 3.94 0 0 0 0-5.571z"/><g opacity=".5"><path fill="#EB743B" stroke="#FFF" stroke-miterlimit="10" d="m319.188 75.012 24.402 42.82-24.402 42.658h-48.801l-24.401-42.698 24.401-42.511z"/><g fill="#FFF"><path d="m288.192 146.363 1.148-6.07h1.752l-1.893 8.531h-1.77l-1.389-5.707-1.389 5.707h-1.77l-1.893-8.531h1.752l1.154 6.059 1.406-6.059h1.488l1.404 6.07zM291.485 145.595c0-.629.121-1.189.363-1.682s.591-.873 1.046-1.143.983-.404 1.585-.404c.855 0 1.554.262 2.095.785s.843 1.234.905 2.133l.012.434c0 .973-.271 1.753-.814 2.341s-1.271.882-2.186.882-1.644-.293-2.188-.879-.817-1.383-.817-2.391v-.076zm1.694.12c0 .603.113 1.063.34 1.382.227.319.551.479.973.479.41 0 .73-.157.961-.473.23-.314.346-.818.346-1.511 0-.591-.115-1.048-.346-1.373s-.555-.487-.973-.487c-.414 0-.734.162-.961.484s-.34.823-.34 1.499zM302.097 144.072a4.644 4.644 0 0 0-.609-.047c-.641 0-1.061.217-1.26.65v4.148h-1.693v-6.34h1.6l.047.756c.34-.582.811-.873 1.412-.873.188 0 .363.025.527.076l-.024 1.63zM305.214 146.281l-.609.609v1.934h-1.693v-9h1.693v4.986l.328-.422 1.623-1.904h2.033l-2.291 2.643 2.49 3.697h-1.945l-1.629-2.543z"/></g><path fill="#51382B" d="M284.993 101.855a5.25 5.25 0 0 0-3.553 3.393l-7.652 22.957 1.204 1.205 12.314-12.313a3.905 3.905 0 0 1-.395-1.688 3.94 3.94 0 0 1 7.876 0 3.938 3.938 0 0 1-3.938 3.938 3.893 3.893 0 0 1-1.688-.394l-12.313 12.313 1.205 1.205 22.957-7.652a5.257 5.257 0 0 0 3.392-3.553l3.51-12.42-10.5-10.5-12.419 3.509zm29.641-5.3-4.931-4.93a3.937 3.937 0 0 0-5.57 0l-4.64 4.639 10.502 10.501 4.639-4.639a3.94 3.94 0 0 0 0-5.571z"/></g><path fill="#EB743B" stroke="#FFF" stroke-miterlimit="10" d="m100.188 33.012 24.402 42.82-24.402 42.658H51.387L26.986 75.792l24.401-42.511z"/><g fill="#FFF"><path d="M63.037 105.066h-3.082l-.586 1.758H57.5l3.176-8.531h1.629l3.193 8.531h-1.869l-.592-1.758zm-2.607-1.424h2.133l-1.072-3.193-1.061 3.193zM69.916 106.179c-.418.508-.996.762-1.734.762-.68 0-1.197-.195-1.555-.586s-.541-.963-.549-1.717v-4.154h1.693v4.101c0 .661.301.991.902.991.574 0 .969-.199 1.184-.599v-4.493h1.699v6.34h-1.594l-.046-.645zM74.861 98.925v1.559h1.084v1.242h-1.084v3.164c0 .234.045.402.135.504s.262.152.516.152c.188 0 .354-.014.498-.041v1.283a3.471 3.471 0 0 1-1.025.152c-1.188 0-1.793-.6-1.816-1.799v-3.416h-.926v-1.242h.926v-1.559h1.692zM78.541 101.175c.449-.539 1.014-.809 1.693-.809 1.375 0 2.072.799 2.092 2.396v4.061h-1.693v-4.014c0-.363-.078-.632-.234-.806s-.416-.261-.779-.261c-.496 0-.855.191-1.078.574v4.506h-1.693v-9h1.693v3.353zM83.34 103.595c0-.629.121-1.189.363-1.682s.592-.873 1.047-1.143.982-.404 1.584-.404c.855 0 1.555.262 2.096.785s.842 1.234.904 2.133l.012.434c0 .973-.271 1.753-.814 2.341s-1.271.882-2.186.882-1.643-.293-2.188-.879-.818-1.383-.818-2.391v-.076zm1.693.12c0 .603.113 1.063.34 1.382.227.319.551.479.973.479.41 0 .73-.157.961-.473.23-.314.346-.818.346-1.511 0-.591-.115-1.048-.346-1.373s-.555-.487-.973-.487c-.414 0-.734.162-.961.484s-.34.823-.34 1.499zM93.951 102.072a4.644 4.644 0 0 0-.609-.047c-.641 0-1.061.217-1.26.65v4.148h-1.693v-6.34h1.6l.047.756c.34-.582.811-.873 1.412-.873.188 0 .363.025.527.076l-.024 1.63z"/></g><path fill="#51382B" d="M75.787 69.185c5.8 0 10.5-4.7 10.5-10.5s-4.7-10.5-10.5-10.5-10.5 4.7-10.5 10.5 4.7 10.5 10.5 10.5zm7.35 2.625h-1.369c-1.821.837-3.848 1.312-5.98 1.312s-4.15-.476-5.98-1.312h-1.369c-6.087 0-11.025 4.938-11.025 11.024v3.413a3.94 3.94 0 0 0 3.938 3.938h28.875a3.94 3.94 0 0 0 3.938-3.938v-3.413c-.003-6.086-4.941-11.024-11.028-11.024z"/><g opacity=".5"><path fill="#EB743B" stroke="#FFF" stroke-miterlimit="10" d="m246.188 33.012 24.402 42.82-24.402 42.658h-48.801l-24.401-42.698 24.401-42.511z"/><g fill="#FFF"><path d="M209.037 105.066h-3.082l-.586 1.758H203.5l3.176-8.531h1.629l3.193 8.531h-1.869l-.592-1.758zm-2.607-1.424h2.133l-1.072-3.193-1.061 3.193zM215.916 106.179c-.418.508-.996.762-1.734.762-.68 0-1.197-.195-1.555-.586s-.541-.963-.549-1.717v-4.154h1.693v4.101c0 .661.301.991.902.991.574 0 .969-.199 1.184-.599v-4.493h1.699v6.34h-1.594l-.046-.645zM220.861 98.925v1.559h1.084v1.242h-1.084v3.164c0 .234.045.402.135.504s.262.152.516.152c.188 0 .354-.014.498-.041v1.283a3.471 3.471 0 0 1-1.025.152c-1.188 0-1.793-.6-1.816-1.799v-3.416h-.926v-1.242h.926v-1.559h1.692zM224.541 101.175c.449-.539 1.014-.809 1.693-.809 1.375 0 2.072.799 2.092 2.396v4.061h-1.693v-4.014c0-.363-.078-.632-.234-.806s-.416-.261-.779-.261c-.496 0-.855.191-1.078.574v4.506h-1.693v-9h1.693v3.353zM229.34 103.595c0-.629.121-1.189.363-1.682s.592-.873 1.047-1.143.982-.404 1.584-.404c.855 0 1.555.262 2.096.785s.842 1.234.904 2.133l.012.434c0 .973-.271 1.753-.814 2.341s-1.271.882-2.186.882-1.643-.293-2.188-.879-.818-1.383-.818-2.391v-.076zm1.693.12c0 .603.113 1.063.34 1.382.227.319.551.479.973.479.41 0 .73-.157.961-.473.23-.314.346-.818.346-1.511 0-.591-.115-1.048-.346-1.373s-.555-.487-.973-.487c-.414 0-.734.162-.961.484s-.34.823-.34 1.499zM239.951 102.072a4.644 4.644 0 0 0-.609-.047c-.641 0-1.061.217-1.26.65v4.148h-1.693v-6.34h1.6l.047.756c.34-.582.811-.873 1.412-.873.188 0 .363.025.527.076l-.024 1.63z"/></g><path fill="#51382B" d="M221.787 69.185c5.8 0 10.5-4.7 10.5-10.5s-4.7-10.5-10.5-10.5-10.5 4.7-10.5 10.5 4.7 10.5 10.5 10.5zm7.35 2.625h-1.369c-1.821.837-3.848 1.312-5.98 1.312s-4.15-.476-5.98-1.312h-1.369c-6.087 0-11.025 4.938-11.025 11.024v3.413a3.94 3.94 0 0 0 3.938 3.938h28.875a3.94 3.94 0 0 0 3.938-3.938v-3.413c-.003-6.086-4.941-11.024-11.028-11.024z"/></g><path fill="#EB743B" stroke="#FFF" stroke-miterlimit="10" d="m173.188 161.012 24.402 42.82-24.402 42.658h-48.801l-24.401-42.698 24.401-42.511z"/><g fill="#FFF"><path d="M136.02 231.126h-3.375v2.285h3.961v1.412h-5.719v-8.531h5.707v1.424h-3.949v2.033h3.375v1.377zM137.15 231.607c0-.988.223-1.775.666-2.361s1.049-.879 1.818-.879c.617 0 1.127.23 1.529.691v-3.234h1.699v9h-1.529l-.082-.674c-.422.527-.965.791-1.629.791-.746 0-1.344-.294-1.795-.882s-.677-1.405-.677-2.452zm1.694.126c0 .595.104 1.051.311 1.367.207.317.508.476.902.476.523 0 .893-.221 1.107-.663v-2.506c-.211-.442-.576-.663-1.096-.663-.816 0-1.224.663-1.224 1.989zM144.164 226.843c0-.254.086-.463.256-.627s.4-.246.693-.246c.289 0 .52.082.691.246s.258.373.258.627c0 .258-.086.469-.26.633s-.404.246-.689.246-.514-.082-.688-.246-.261-.375-.261-.633zm1.799 7.981h-1.699v-6.34h1.699v6.34zM149.385 226.925v1.559h1.084v1.242h-1.084v3.164c0 .234.045.402.135.504s.262.152.516.152c.188 0 .354-.014.498-.041v1.283a3.471 3.471 0 0 1-1.025.152c-1.188 0-1.793-.6-1.816-1.799v-3.416h-.926v-1.242h.926v-1.559h1.692zM151.4 226.843c0-.254.086-.463.256-.627s.4-.246.693-.246c.289 0 .52.082.691.246s.258.373.258.627c0 .258-.086.469-.26.633s-.404.246-.689.246-.514-.082-.688-.246-.261-.375-.261-.633zm1.799 7.981H151.5v-6.34h1.699v6.34zM154.33 231.595c0-.629.121-1.189.363-1.682s.592-.873 1.047-1.143.982-.404 1.584-.404c.855 0 1.555.262 2.096.785s.842 1.234.904 2.133l.012.434c0 .973-.271 1.753-.814 2.341s-1.271.882-2.186.882-1.643-.293-2.188-.879-.818-1.383-.818-2.391v-.076zm1.693.12c0 .603.113 1.063.34 1.382.227.319.551.479.973.479.41 0 .73-.157.961-.473.23-.314.346-.818.346-1.511 0-.591-.115-1.048-.346-1.373s-.555-.487-.973-.487c-.414 0-.734.162-.961.484s-.34.823-.34 1.499zM162.938 228.484l.053.732c.453-.566 1.061-.85 1.822-.85.672 0 1.172.197 1.5.592s.496.984.504 1.77v4.096h-1.693v-4.055c0-.359-.078-.62-.234-.782s-.416-.243-.779-.243c-.477 0-.834.203-1.072.609v4.471h-1.693v-6.34h1.592z"/></g><path fill="#51382B" d="M167.162 206.051v-27.562a1.963 1.963 0 0 0-1.969-1.969h-26.906a7.877 7.877 0 0 0-7.875 7.875v26.25a7.877 7.877 0 0 0 7.875 7.875h26.906a1.964 1.964 0 0 0 1.969-1.969v-1.312c0-.615-.287-1.174-.73-1.535-.344-1.263-.344-4.863 0-6.127.443-.354.73-.911.73-1.526zm-26.25-18.539c0-.271.223-.492.492-.492h17.391c.271 0 .492.221.492.492v1.641a.492.492 0 0 1-.492.491h-17.391a.493.493 0 0 1-.492-.491v-1.641zm0 5.249c0-.271.223-.491.492-.491h17.391c.271 0 .492.221.492.491v1.641a.494.494 0 0 1-.492.493h-17.391a.495.495 0 0 1-.492-.493v-1.641zm20.787 20.509h-23.412a2.623 2.623 0 0 1-2.625-2.625 2.632 2.632 0 0 1 2.625-2.625h23.412c-.156 1.402-.156 3.847 0 5.25z"/><g opacity=".5"><path fill="#EB743B" stroke="#FFF" stroke-miterlimit="10" d="m246.188 288.012 24.402 42.82-24.402 42.658h-48.801l-24.401-42.698 24.401-42.511z"/><g fill="#FFF"><path d="M209.02 352.127h-3.375v2.285h3.961v1.412h-5.719v-8.531h5.707v1.424h-3.949v2.033h3.375v1.377zM210.15 352.607c0-.988.223-1.775.666-2.361s1.049-.879 1.818-.879c.617 0 1.127.23 1.529.691v-3.234h1.699v9h-1.529l-.082-.674c-.422.527-.965.791-1.629.791-.746 0-1.344-.295-1.795-.883s-.677-1.404-.677-2.451zm1.694.125c0 .596.104 1.051.311 1.367.207.318.508.477.902.477.523 0 .893-.222 1.107-.664v-2.506c-.211-.441-.576-.662-1.096-.662-.816 0-1.224.662-1.224 1.988zM217.164 347.844c0-.254.086-.463.256-.627s.4-.246.693-.246c.289 0 .52.082.691.246s.258.373.258.627c0 .258-.086.469-.26.633s-.404.246-.689.246-.514-.082-.688-.246-.261-.375-.261-.633zm1.799 7.98h-1.699v-6.34h1.699v6.34zM222.385 347.926v1.559h1.084v1.242h-1.084v3.164c0 .234.045.402.135.504s.262.152.516.152c.188 0 .354-.014.498-.041v1.283a3.471 3.471 0 0 1-1.025.152c-1.188 0-1.793-.6-1.816-1.799v-3.416h-.926v-1.242h.926v-1.559h1.692zM224.4 347.844c0-.254.086-.463.256-.627s.4-.246.693-.246c.289 0 .52.082.691.246s.258.373.258.627c0 .258-.086.469-.26.633s-.404.246-.689.246-.514-.082-.688-.246-.261-.375-.261-.633zm1.799 7.98H224.5v-6.34h1.699v6.34zM227.33 352.596c0-.629.121-1.189.363-1.682s.592-.873 1.047-1.143.982-.404 1.584-.404c.855 0 1.555.262 2.096.785s.842 1.234.904 2.133l.012.434c0 .973-.271 1.752-.814 2.34s-1.271.883-2.186.883-1.643-.293-2.188-.879-.818-1.383-.818-2.391v-.076zm1.693.119c0 .604.113 1.064.34 1.383s.551.479.973.479c.41 0 .73-.158.961-.473s.346-.818.346-1.512c0-.59-.115-1.048-.346-1.373-.23-.324-.555-.486-.973-.486-.414 0-.734.161-.961.484-.226.322-.34.822-.34 1.498zM235.938 349.484l.053.732c.453-.566 1.061-.85 1.822-.85.672 0 1.172.197 1.5.592s.496.984.504 1.77v4.096h-1.693v-4.055c0-.359-.078-.621-.234-.783s-.416-.242-.779-.242c-.477 0-.834.203-1.072.609v4.471h-1.693v-6.34h1.592zM199.355 363.355c0-.895.119-1.746.357-2.555s.59-1.525 1.055-2.148.969-1.055 1.512-1.297l.328.914c-.57.422-1.016 1.074-1.336 1.957s-.48 1.914-.48 3.094v.182c0 1.184.158 2.219.475 3.105s.764 1.549 1.342 1.986l-.328.896c-.531-.238-1.027-.66-1.486-1.264s-.809-1.299-1.051-2.088-.371-1.613-.387-2.473v-.309zM206.41 366.941c-.93 0-1.688-.285-2.271-.855s-.875-1.33-.875-2.279v-.164c0-.637.123-1.207.369-1.709s.594-.889 1.045-1.16.967-.406 1.545-.406c.867 0 1.549.273 2.047.82s.748 1.322.748 2.326v.691h-4.037c.055.414.219.746.494.996s.625.375 1.047.375c.652 0 1.162-.236 1.529-.709l.832.932c-.254.359-.598.639-1.031.84s-.914.302-1.442.302zm-.193-5.209c-.336 0-.609.113-.818.341s-.342.554-.4.978h2.355v-.136c-.008-.377-.109-.668-.305-.874s-.473-.309-.832-.309zM213.271 363.854h-3.299v-1.365h3.299v1.365zM220.344 363.713c0 1.016-.217 1.807-.65 2.375s-1.039.854-1.816.854c-.688 0-1.236-.264-1.646-.791l-.076.674h-1.523v-9h1.693v3.229c.391-.457.904-.686 1.541-.686.773 0 1.379.283 1.818.852s.66 1.369.66 2.4v.093zm-1.694-.123c0-.641-.102-1.109-.305-1.404s-.506-.441-.908-.441c-.539 0-.91.221-1.113.662v2.502c.207.445.582.668 1.125.668.547 0 .906-.27 1.078-.809.082-.258.123-.651.123-1.178zM221.123 363.596c0-.629.121-1.189.363-1.682s.59-.873 1.045-1.143.984-.404 1.586-.404c.855 0 1.553.262 2.094.785s.844 1.234.906 2.133l.012.434c0 .973-.271 1.752-.814 2.34s-1.271.883-2.186.883-1.645-.293-2.189-.879-.816-1.383-.816-2.391v-.076zm1.693.119c0 .604.113 1.064.34 1.383s.551.479.973.479c.41 0 .73-.158.961-.473s.346-.818.346-1.512c0-.59-.115-1.048-.346-1.373-.23-.324-.555-.486-.973-.486-.414 0-.734.161-.961.484-.226.322-.34.822-.34 1.498zM227.908 363.596c0-.629.121-1.189.363-1.682s.59-.873 1.045-1.143.984-.404 1.586-.404c.855 0 1.553.262 2.094.785s.844 1.234.906 2.133l.012.434c0 .973-.271 1.752-.814 2.34s-1.271.883-2.186.883-1.645-.293-2.189-.879-.816-1.383-.816-2.391v-.076zm1.694.119c0 .604.113 1.064.34 1.383s.551.479.973.479c.41 0 .73-.158.961-.473s.346-.818.346-1.512c0-.59-.115-1.048-.346-1.373-.23-.324-.555-.486-.973-.486-.414 0-.734.161-.961.484-.227.322-.34.822-.34 1.498zM237.26 364.281l-.609.609v1.934h-1.693v-9h1.693v4.986l.328-.422 1.623-1.904h2.033l-2.291 2.643 2.49 3.697h-1.945l-1.629-2.543zM244.285 363.49c0 .883-.127 1.732-.381 2.549s-.619 1.537-1.096 2.162-.986 1.055-1.529 1.289l-.328-.896c.555-.418.992-1.062 1.312-1.934s.486-1.873.498-3.006v-.311c0-1.168-.16-2.197-.479-3.088s-.762-1.559-1.332-2.004l.328-.896c.531.23 1.031.648 1.502 1.254s.836 1.311 1.096 2.115.396 1.639.408 2.502v.264z"/></g><path fill="#51382B" d="M240.162 329.051v-27.562a1.963 1.963 0 0 0-1.969-1.969h-26.906a7.877 7.877 0 0 0-7.875 7.875v26.25a7.877 7.877 0 0 0 7.875 7.875h26.906a1.964 1.964 0 0 0 1.969-1.969v-1.312c0-.615-.287-1.174-.73-1.535-.344-1.263-.344-4.863 0-6.127.443-.354.73-.911.73-1.526zm-26.25-18.539c0-.271.223-.492.492-.492h17.391c.271 0 .492.221.492.492v1.641a.492.492 0 0 1-.492.491h-17.391a.493.493 0 0 1-.492-.491v-1.641zm0 5.249c0-.271.223-.491.492-.491h17.391c.271 0 .492.221.492.491v1.641a.494.494 0 0 1-.492.493h-17.391a.495.495 0 0 1-.492-.493v-1.641zm20.787 20.509h-23.412a2.623 2.623 0 0 1-2.625-2.625 2.632 2.632 0 0 1 2.625-2.625h23.412c-.156 1.402-.156 3.847 0 5.25z"/></g><path fill="#EB743B" stroke="#FFF" stroke-miterlimit="10" d="m173.188 246.012 24.402 42.82-24.402 42.658h-48.801l-24.401-42.698 24.401-42.511z"/><g fill="#FFF"><path d="M136.02 310.127h-3.375v2.285h3.961v1.412h-5.719v-8.531h5.707v1.424h-3.949v2.033h3.375v1.377zM137.15 310.607c0-.988.223-1.775.666-2.361s1.049-.879 1.818-.879c.617 0 1.127.23 1.529.691v-3.234h1.699v9h-1.529l-.082-.674c-.422.527-.965.791-1.629.791-.746 0-1.344-.295-1.795-.883s-.677-1.404-.677-2.451zm1.694.125c0 .596.104 1.051.311 1.367.207.318.508.477.902.477.523 0 .893-.222 1.107-.664v-2.506c-.211-.441-.576-.662-1.096-.662-.816 0-1.224.662-1.224 1.988zM144.164 305.844c0-.254.086-.463.256-.627s.4-.246.693-.246c.289 0 .52.082.691.246s.258.373.258.627c0 .258-.086.469-.26.633s-.404.246-.689.246-.514-.082-.688-.246-.261-.375-.261-.633zm1.799 7.98h-1.699v-6.34h1.699v6.34zM149.385 305.926v1.559h1.084v1.242h-1.084v3.164c0 .234.045.402.135.504s.262.152.516.152c.188 0 .354-.014.498-.041v1.283a3.471 3.471 0 0 1-1.025.152c-1.188 0-1.793-.6-1.816-1.799v-3.416h-.926v-1.242h.926v-1.559h1.692zM151.4 305.844c0-.254.086-.463.256-.627s.4-.246.693-.246c.289 0 .52.082.691.246s.258.373.258.627c0 .258-.086.469-.26.633s-.404.246-.689.246-.514-.082-.688-.246-.261-.375-.261-.633zm1.799 7.98H151.5v-6.34h1.699v6.34zM154.33 310.596c0-.629.121-1.189.363-1.682s.592-.873 1.047-1.143.982-.404 1.584-.404c.855 0 1.555.262 2.096.785s.842 1.234.904 2.133l.012.434c0 .973-.271 1.752-.814 2.34s-1.271.883-2.186.883-1.643-.293-2.188-.879-.818-1.383-.818-2.391v-.076zm1.693.119c0 .604.113 1.064.34 1.383s.551.479.973.479c.41 0 .73-.158.961-.473s.346-.818.346-1.512c0-.59-.115-1.048-.346-1.373-.23-.324-.555-.486-.973-.486-.414 0-.734.161-.961.484-.226.322-.34.822-.34 1.498zM162.938 307.484l.053.732c.453-.566 1.061-.85 1.822-.85.672 0 1.172.197 1.5.592s.496.984.504 1.77v4.096h-1.693v-4.055c0-.359-.078-.621-.234-.783s-.416-.242-.779-.242c-.477 0-.834.203-1.072.609v4.471h-1.693v-6.34h1.592zM140.002 323.746c-.316.379-.764.672-1.342.881s-1.219.314-1.922.314c-.738 0-1.387-.162-1.943-.484s-.986-.789-1.289-1.402-.457-1.334-.465-2.162v-.58c0-.852.143-1.59.43-2.213s.701-1.1 1.242-1.43 1.176-.494 1.902-.494c1.012 0 1.803.24 2.373.723s.908 1.186 1.014 2.107h-1.711c-.078-.488-.252-.846-.52-1.072s-.635-.34-1.104-.34c-.598 0-1.053.225-1.365.674s-.471 1.117-.475 2.004v.545c0 .895.17 1.57.51 2.027s.838.686 1.494.686c.66 0 1.131-.141 1.412-.422v-1.471h-1.6v-1.295H140v3.404zM144.877 320.072a4.644 4.644 0 0 0-.609-.047c-.641 0-1.061.217-1.26.65v4.148h-1.693v-6.34h1.6l.047.756c.34-.582.811-.873 1.412-.873.188 0 .363.025.527.076l-.024 1.63zM145.217 321.596c0-.629.121-1.189.363-1.682s.59-.873 1.045-1.143.984-.404 1.586-.404c.855 0 1.553.262 2.094.785s.844 1.234.906 2.133l.012.434c0 .973-.271 1.752-.814 2.34s-1.271.883-2.186.883-1.645-.293-2.189-.879-.816-1.383-.816-2.391v-.076zm1.693.119c0 .604.113 1.064.34 1.383s.551.479.973.479c.41 0 .73-.158.961-.473s.346-.818.346-1.512c0-.59-.115-1.048-.346-1.373-.23-.324-.555-.486-.973-.486-.414 0-.734.161-.961.484-.227.322-.34.822-.34 1.498zM156.062 324.18c-.418.508-.996.762-1.734.762-.68 0-1.199-.195-1.557-.586s-.539-.963-.547-1.717v-4.154h1.693v4.1c0 .661.301.992.902.992.574 0 .969-.199 1.184-.6v-4.492h1.699v6.34h-1.594l-.046-.645zM164.688 321.713c0 .977-.223 1.758-.666 2.346s-1.041.883-1.795.883c-.641 0-1.158-.223-1.553-.668v2.988h-1.693v-8.777h1.57l.059.621c.41-.492.945-.738 1.605-.738.781 0 1.389.289 1.822.867s.65 1.375.65 2.391v.087zm-1.694-.123c0-.59-.105-1.045-.314-1.365s-.512-.48-.91-.48c-.531 0-.896.203-1.096.609v2.596c.207.418.576.627 1.107.627.809-.001 1.213-.663 1.213-1.987z"/></g><path fill="#51382B" d="M169.787 261.789v23.625a3.94 3.94 0 0 1-3.938 3.938h-3.938V272.29a6.571 6.571 0 0 0-6.562-6.562h-17.062v-3.938a3.94 3.94 0 0 1 3.938-3.938h23.625a3.938 3.938 0 0 1 3.937 3.937zm-10.5 10.5v23.625a3.94 3.94 0 0 1-3.938 3.938h-23.625a3.94 3.94 0 0 1-3.938-3.938v-23.625a3.94 3.94 0 0 1 3.938-3.938h23.625a3.94 3.94 0 0 1 3.938 3.938zm-5.578 2.297a.987.987 0 0 0-.984-.984h-18.703a.987.987 0 0 0-.984.984v4.266h20.672v-4.266z"/><path fill="#EB743B" stroke="#FFF" stroke-miterlimit="10" d="m246.188 204.012 24.402 42.82-24.402 42.658h-48.801l-24.401-42.698 24.401-42.511z"/><g fill="#FFF"><path d="M198.646 274.818v3.006h-1.758v-8.531h3.328c.641 0 1.203.117 1.689.352s.861.566 1.123.998.393.924.393 1.475c0 .836-.287 1.494-.859 1.977s-1.363.725-2.375.725h-1.541zm0-1.423h1.57c.465 0 .818-.109 1.062-.328s.367-.531.367-.938c0-.418-.123-.756-.369-1.014s-.586-.391-1.02-.398h-1.611v2.678zM208.314 277.18c-.418.508-.996.762-1.734.762-.68 0-1.199-.195-1.557-.586s-.539-.963-.547-1.717v-4.154h1.693v4.1c0 .661.301.992.902.992.574 0 .969-.199 1.184-.6v-4.492h1.699v6.34h-1.594l-.046-.645zM216.945 274.713c0 1.016-.217 1.807-.65 2.375s-1.039.854-1.816.854c-.688 0-1.236-.264-1.646-.791l-.076.674h-1.523v-9h1.693v3.229c.391-.457.904-.686 1.541-.686.773 0 1.379.283 1.818.852s.66 1.369.66 2.4v.093zm-1.693-.123c0-.641-.102-1.109-.305-1.404s-.506-.441-.908-.441c-.539 0-.91.221-1.113.662v2.502c.207.445.582.668 1.125.668.547 0 .906-.27 1.078-.809.082-.258.123-.651.123-1.178zM219.775 277.824h-1.699v-9h1.699v9zM221.158 269.844c0-.254.084-.463.254-.627s.402-.246.695-.246c.289 0 .52.082.691.246s.258.373.258.627c0 .258-.088.469-.262.633s-.402.246-.688.246-.516-.082-.689-.246-.259-.375-.259-.633zm1.799 7.98h-1.699v-6.34h1.699v6.34zM227.785 276.072c0-.207-.104-.371-.309-.49s-.533-.225-.986-.318c-1.508-.316-2.262-.957-2.262-1.922 0-.562.232-1.033.699-1.41s1.078-.564 1.832-.564c.805 0 1.447.189 1.93.568s.725.871.725 1.477h-1.693c0-.242-.078-.443-.234-.602s-.4-.236-.732-.236c-.285 0-.506.064-.662.193s-.234.293-.234.492c0 .188.088.338.266.453s.479.215.9.299.777.18 1.066.285c.895.328 1.342.896 1.342 1.705 0 .578-.248 1.045-.744 1.402s-1.137.537-1.922.537c-.531 0-1.004-.096-1.416-.285s-.734-.449-.969-.779-.352-.686-.352-1.068h1.605c.016.301.127.531.334.691s.484.24.832.24c.324 0 .568-.062.734-.186s.25-.283.25-.482zM232.174 272.176c.449-.539 1.014-.809 1.693-.809 1.375 0 2.072.799 2.092 2.396v4.061h-1.693v-4.014c0-.363-.078-.633-.234-.807s-.416-.26-.779-.26c-.496 0-.855.191-1.078.574v4.506h-1.693v-9h1.693v3.353zM240.154 277.941c-.93 0-1.688-.285-2.271-.855s-.875-1.33-.875-2.279v-.164c0-.637.123-1.207.369-1.709s.594-.889 1.045-1.16.967-.406 1.545-.406c.867 0 1.549.273 2.047.82s.748 1.322.748 2.326v.691h-4.037c.055.414.219.746.494.996s.625.375 1.047.375c.652 0 1.162-.236 1.529-.709l.832.932c-.254.359-.598.639-1.031.84s-.914.302-1.442.302zm-.193-5.209c-.336 0-.609.113-.818.341s-.342.554-.4.978h2.355v-.136c-.008-.377-.109-.668-.305-.874s-.473-.309-.832-.309zM247.285 273.072a4.644 4.644 0 0 0-.609-.047c-.641 0-1.061.217-1.26.65v4.148h-1.693v-6.34h1.6l.047.756c.34-.582.811-.873 1.412-.873.188 0 .363.025.527.076l-.024 1.63z"/></g><path fill="#51382B" d="M244.287 227.657v1.5a.75.75 0 0 1-.75.75h-2.25v1.125c0 .621-.504 1.125-1.125 1.125h-36.75a1.125 1.125 0 0 1-1.125-1.125v-1.125h-2.25a.75.75 0 0 1-.75-.75v-1.5c0-.304.184-.577.463-.693l21.75-8.25a.751.751 0 0 1 .574 0l21.75 8.25a.75.75 0 0 1 .463.693zm-2.25 28.5h-40.5a2.25 2.25 0 0 0-2.25 2.25v1.5c0 .414.336.75.75.75h43.5a.75.75 0 0 0 .75-.75v-1.5a2.25 2.25 0 0 0-2.25-2.25zm-35.25-22.5v18h-3.375c-.621 0-1.125.504-1.125 1.125v1.875h39v-1.875c0-.621-.504-1.125-1.125-1.125h-3.375v-18h-6v18h-6v-18h-6v18h-6v-18h-6z"/></svg>